<?xml version="1.0" encoding="UTF-8" standalone="no"?>
<svg
   xmlns:dc="http://purl.org/dc/elements/1.1/"
   xmlns:cc="http://creativecommons.org/ns#"
   xmlns:rdf="http://www.w3.org/1999/02/22-rdf-syntax-ns#"
   xmlns:svg="http://www.w3.org/2000/svg"
   xmlns="http://www.w3.org/2000/svg"
   xmlns:sodipodi="http://sodipodi.sourceforge.net/DTD/sodipodi-0.dtd"
   xmlns:inkscape="http://www.inkscape.org/namespaces/inkscape"
   width="297mm"
   height="210mm"
   viewBox="-27 -31 297 210"
   version="1.1"
   id="svg6"
   sodipodi:docname="SupportAssisDebout.svg"
   inkscape:version="0.92.3 (2405546, 2018-03-11)">
  <metadata
     id="metadata12">
    <rdf:RDF>
      <cc:Work
         rdf:about="">
        <dc:format>image/svg+xml</dc:format>
        <dc:type
           rdf:resource="http://purl.org/dc/dcmitype/StillImage" />
        <dc:title>OpenSCAD Model</dc:title>
      </cc:Work>
    </rdf:RDF>
  </metadata>
  <defs
     id="defs10" />
  <sodipodi:namedview
     pagecolor="#ffffff"
     bordercolor="#666666"
     borderopacity="1"
     objecttolerance="10"
     gridtolerance="10"
     guidetolerance="10"
     inkscape:pageopacity="0"
     inkscape:pageshadow="2"
     inkscape:window-width="1360"
     inkscape:window-height="703"
     id="namedview8"
     showgrid="false"
     inkscape:zoom="0.32748437"
     inkscape:cx="243.77953"
     inkscape:cy="199.62355"
     inkscape:window-x="0"
     inkscape:window-y="24"
     inkscape:window-maximized="1"
     inkscape:current-layer="svg6" />
  <title
     id="title2">OpenSCAD Model</title>
  <path
     d="M 143.81698,31.291478 H 77.245775 v 8.219939 h -7.891142 v 26.303809 h 7.891142 v 8.219938 H 143.81698 Z M 37.570868,74.035164 H 67.162649 V 31.291478 H -18.324719 V 74.035164 H 11.267063 V 116.77884 H 37.570868 Z M 220.12366,116.77884 V 74.035164 h 42.74368 V 41.155404 H 151.07617 v 32.87976 h 42.74369 V 116.77884 Z M 191.62788,76.227142 H 39.762851 V 118.97084 H 191.62788 Z M 161.63715,111.40846 V 83.789514 h 6.83395 v 27.618946 z m 14.68629,0 V 83.789514 h 6.83394 v 27.618946 z m -102.804038,0 V 83.789514 h 6.833948 v 27.618946 z m 73.431458,0 V 83.789514 h 6.83395 v 27.618946 z m -85.26817,0 V 83.789514 h 4.956952 v 27.618946 z m 33.356951,0 H 88.205694 V 83.789514 h 6.833947 z m 14.686289,0 h -6.83394 V 83.789514 h 6.83394 z m 14.68629,0 h -6.83395 V 83.789514 h 6.83395 z m 14.6863,0 h -6.83396 V 83.789514 h 6.83396 z"
     id="path4"
     inkscape:connector-curvature="0"
     style="fill:#d3d3d3;stroke:#000000;stroke-width:1.09599197" />
</svg>
